<svg width="432" height="177" viewBox="0 0 432 177" fill="none" xmlns="http://www.w3.org/2000/svg">
<g clip-path="url(#clip0_21_1159)">
<path d="M168.096 101.951L192.001 50.8262L218.662 67.8618C218.662 67.8618 196.823 127.443 187.354 136.013C177.879 144.584 168.096 101.956 168.096 101.956V101.951Z" fill="#19355D"/>
<path d="M71.4977 65.8892C57.4448 70.6849 26.8634 117.929 26.8634 117.929L1.27002 154.065C1.27002 154.065 2.71028 161.206 21.4613 160.764C40.2077 160.323 71.4977 120.081 71.4977 120.081V65.8892V65.8892Z" fill="#19355D"/>
<path d="M109.997 28.925C111.176 23.8907 108.047 18.8547 103.009 17.6767C97.9712 16.4988 92.9314 19.6249 91.7525 24.6591C90.5737 29.6934 93.7021 34.7294 98.7402 35.9074C103.778 37.0853 108.818 33.9592 109.997 28.925Z" fill="#212123"/>
<path d="M225.371 57.0614L197.583 41.042L188.067 58.5788C185.237 63.4802 187.317 67.9725 192.167 72.1061C197.017 76.2443 202.101 77.4995 202.101 77.4995C207.724 79.3341 213.867 76.9846 216.821 71.867L225.371 57.0614V57.0614Z" fill="#FFD1BF"/>
<path d="M201.001 25.7452L205 26.3196C205.852 26.442 206.445 27.2332 206.323 28.0843L203.435 48.1551L196.348 47.1372L199.235 27.0709C199.357 26.2198 200.149 25.6274 201.001 25.7498L201.001 25.7452Z" fill="#FFD1BF"/>
<path d="M184.607 38.5971L188.541 37.68C189.379 37.4847 190.219 38.0066 190.415 38.8439L195.024 58.591L188.052 60.2162L183.442 40.4691C183.246 39.6318 183.769 38.7924 184.607 38.5971V38.5971Z" fill="#FFD1BF"/>
<path d="M214.335 27.1165L218.123 28.5224C218.929 28.8219 219.341 29.7204 219.042 30.5264L211.975 49.5343L205.263 47.0428L212.33 28.0349C212.629 27.2289 213.529 26.8171 214.335 27.1165V27.1165Z" fill="#FFD1BF"/>
<path d="M224.207 33.0577L227.707 35.075C228.452 35.5046 228.708 36.4593 228.278 37.2041L218.138 54.7681L211.936 51.1931L222.076 33.629C222.506 32.8842 223.462 32.628 224.207 33.0577V33.0577Z" fill="#FFD1BF"/>
<path d="M231.816 44.4855L234.618 47.3935C235.215 48.0128 235.196 49.001 234.577 49.5974L219.96 63.6628L214.993 58.5093L229.61 44.444C230.23 43.8476 231.219 43.8662 231.816 44.4855V44.4855Z" fill="#FFD1BF"/>
<path d="M127.217 65.1811L120.752 64.2339L105.19 65.0569L98.0022 68.156L95.7198 68.2341L93.8148 79.5268L113.822 122.716L131.156 72.1195L127.217 65.1811Z" fill="white"/>
<path d="M101.578 66.8411L120.752 66.0411L118.124 45.0972L100.869 45.8145L101.578 66.8411Z" fill="#FFD1BF"/>
<path d="M118.902 51.2905L105.852 54.2286L119.703 57.6955L118.902 51.2905Z" fill="#212123"/>
<path d="M98.4214 47.2285C100.845 45.6888 101.484 42.3578 99.8488 39.7884C98.2139 37.2191 94.924 36.3844 92.5007 37.9241C90.0774 39.4638 89.4383 42.7948 91.0733 45.3641C92.7082 47.9335 95.998 48.7682 98.4214 47.2285Z" fill="#FFD1BF"/>
<path d="M122.836 36.4159C125.758 35.7354 128.538 37.5838 129.044 40.5449C129.55 43.506 127.599 46.4579 124.677 47.1384C121.755 47.8189 118.976 45.9705 118.47 43.0094C117.959 40.0483 119.914 37.0964 122.836 36.4159Z" fill="#FFD1BF"/>
<path d="M112.63 67.158L120.259 60.8726L122.965 64.928L118.833 75.4942L112.63 67.158Z" fill="white"/>
<path d="M112.63 67.1583L101.219 61.958L98.0022 68.1561L105.668 76.0463L112.63 67.1583Z" fill="white"/>
<path d="M149.207 65.8891L129.122 65.2914C125.399 64.9741 127.212 65.181 127.212 65.181L114.402 125.093L95.7152 68.2341L92.8991 68.3307L71.4885 65.8891L68.111 94.7508L68.9991 175.041L152.373 174.149L152.944 112.531L149.203 65.8891H149.207Z" fill="#375168"/>
<path d="M149.207 65.8891L129.122 65.2914C125.399 64.9741 127.212 65.181 127.212 65.181L113.73 110.425L95.7198 68.2341L92.9037 68.3307L71.4931 65.8891L68.1156 94.7508L69.0037 175.041L152.378 174.149L152.948 112.531L149.207 65.8891V65.8891Z" fill="#19355D"/>
<path d="M116.615 71.5218L114.512 76.1474L110.753 76.3037L108.857 71.9356L112.235 67.9399L116.615 71.5218Z" fill="#FF5E79"/>
<path d="M121.737 75.7057C121.64 75.7057 121.548 75.6781 121.47 75.6183C118.272 73.3101 115.12 70.8502 112.106 68.3029C111.912 68.1374 111.889 67.8477 112.05 67.6546C112.216 67.4615 112.506 67.4385 112.699 67.5994C115.525 69.9904 118.47 72.3032 121.465 74.478C122.27 71.3238 122.652 68.0776 122.597 64.8176C122.597 64.5647 122.795 64.3532 123.048 64.3486C123.292 64.3486 123.513 64.5463 123.517 64.7992C123.582 68.3673 123.131 71.9215 122.183 75.3608C122.141 75.508 122.036 75.6229 121.893 75.6735C121.842 75.6919 121.792 75.7011 121.741 75.7011L121.737 75.7057Z" fill="#212123"/>
<path d="M104.587 76.8832C104.587 76.8832 104.559 76.8832 104.545 76.8832C104.412 76.874 104.292 76.805 104.214 76.6947C102.259 74.0232 100.146 71.4162 97.9469 68.9424C97.7767 68.7539 97.7951 68.4642 97.9838 68.2941C98.1724 68.124 98.4669 68.1424 98.6326 68.3309C100.735 70.6943 102.755 73.1772 104.642 75.7245C107.196 73.2278 109.575 70.5195 111.715 67.6688C111.866 67.4665 112.156 67.4251 112.359 67.5768C112.561 67.7286 112.603 68.0182 112.451 68.2205C110.178 71.2506 107.638 74.1244 104.9 76.7544C104.812 76.8372 104.697 76.8832 104.582 76.8832H104.587Z" fill="#212123"/>
<path d="M117.876 96.5258L113.73 110.426L108.397 97.9328L110.753 76.3084L114.517 76.1475L117.876 96.5258Z" fill="#FF5E79"/>
<path d="M125.372 37.7953C125.372 47.1338 118.308 54.7068 109.598 54.7068C100.887 54.7068 93.8148 47.1338 93.8148 37.7953C93.8148 35.694 94.1737 33.6893 94.8225 31.8409C97.0681 25.4451 102.838 20.8931 109.598 20.8931C110.739 20.8931 111.853 21.0264 112.925 21.2701C114.37 21.6012 115.745 22.1483 117.015 22.8794C120.825 25.0543 123.701 28.8614 124.843 33.4226C125.183 34.8158 125.372 36.278 125.372 37.7953Z" fill="#FFD1BF"/>
<path d="M98.4071 32.0891C99.8842 29.3349 101.693 26.737 103.483 24.1759C104.127 23.2517 104.803 22.3229 105.544 21.4585C98.7982 23.3023 93.8194 29.6199 93.8194 37.1515C93.8194 38.9861 94.1277 40.7471 94.6753 42.3932C95.4161 38.8113 96.6631 35.3491 98.4117 32.0891H98.4071Z" fill="#212123"/>
<path d="M122.491 33.7629C123.365 36.7562 123.927 39.8139 124.336 42.8992C124.994 41.1105 125.372 39.1748 125.372 37.1471C125.372 31.7306 122.79 26.9487 118.838 23.9922C120.347 27.128 121.53 30.4708 122.491 33.7583V33.7629Z" fill="#212123"/>
<path d="M124.843 33.4228C121.852 33.2067 118.893 31.9699 116.836 29.841C115.98 28.972 115.262 27.919 114.687 26.8063C114.255 25.997 113.905 25.1648 113.62 24.328C113.279 23.3394 113.026 22.3095 112.929 21.2749C114.374 21.606 115.75 22.1531 117.02 22.8842C120.83 25.0591 123.706 28.8662 124.847 33.4274L124.843 33.4228Z" fill="#212123"/>
<path d="M117.011 22.8794C116.822 23.5093 116.597 24.0105 116.123 24.8841C115.773 25.5324 115.262 27.4406 114.682 26.8061C112.92 24.8841 107.509 23.9967 103.975 26.7831C100.924 29.1879 101.462 33.1283 97.6248 32.641C96.5297 32.4984 95.4759 32.1628 94.8225 31.8409C97.0681 25.4451 102.838 20.8931 109.598 20.8931C110.739 20.8931 111.853 21.0264 112.925 21.2701C114.37 21.6012 115.745 22.1483 117.015 22.8794H117.011Z" fill="#212123"/>
<path d="M104.527 36.3379C104.518 36.8942 104.964 37.331 105.521 37.3035C106.082 37.2805 106.542 36.8069 106.552 36.2505C106.561 35.6942 106.115 35.2573 105.558 35.2849C104.996 35.3079 104.536 35.7815 104.527 36.3379Z" fill="#212123"/>
<path d="M112.81 36.3379C112.801 36.8942 113.247 37.331 113.804 37.3035C114.365 37.2805 114.825 36.8069 114.834 36.2505C114.844 35.6942 114.397 35.2573 113.84 35.2849C113.284 35.3125 112.819 35.7815 112.81 36.3379Z" fill="#212123"/>
<path d="M113.417 39.4692L106.138 39.6853C106.138 39.6853 108.429 45.557 110.132 45.557C111.834 45.557 113.417 39.4692 113.417 39.4692Z" fill="#E94A2D"/>
<path d="M111.314 38.5129C111.314 38.5129 111.287 38.5129 111.273 38.5129L108.774 38.283C108.645 38.2692 108.526 38.2048 108.448 38.0991C108.369 37.9933 108.342 37.86 108.365 37.7312L109.359 32.8758C109.409 32.6275 109.653 32.4665 109.902 32.5171C110.15 32.5677 110.311 32.8114 110.26 33.0597L109.368 37.4094L111.356 37.5933C111.609 37.6163 111.793 37.8416 111.77 38.0945C111.747 38.3336 111.549 38.5129 111.314 38.5129V38.5129Z" fill="#212123"/>
<path d="M107.058 32.6272C106.791 32.8065 106.556 32.8939 106.322 32.9629C106.087 33.0318 105.857 33.064 105.627 33.0778C105.392 33.0916 105.157 33.0962 104.914 33.0778C104.665 33.0502 104.407 33.0226 104.118 32.9261L104.09 32.9169C103.814 32.8249 103.667 32.5306 103.759 32.2548C103.777 32.195 103.809 32.1398 103.846 32.0938C104.053 31.8317 104.311 31.6616 104.578 31.5237C104.849 31.3903 105.134 31.3076 105.429 31.2616C105.723 31.2202 106.023 31.2156 106.317 31.28C106.612 31.3444 106.901 31.4547 107.164 31.6846C107.408 31.8961 107.431 32.264 107.219 32.5076C107.187 32.5444 107.145 32.5812 107.108 32.6042L107.072 32.6272H107.058Z" fill="#212123"/>
<path d="M112.207 31.4867C112.469 31.2568 112.759 31.1465 113.054 31.0821C113.348 31.0177 113.647 31.0177 113.942 31.0637C114.236 31.1097 114.521 31.1925 114.793 31.3258C115.06 31.4638 115.318 31.6339 115.525 31.896C115.704 32.1213 115.667 32.4523 115.437 32.6316C115.387 32.6684 115.336 32.7006 115.281 32.719L115.248 32.7282C114.954 32.8248 114.701 32.8523 114.452 32.8799C114.204 32.8983 113.969 32.8983 113.739 32.8799C113.505 32.8661 113.279 32.834 113.044 32.765C112.81 32.696 112.57 32.6087 112.308 32.4293L112.276 32.4063C112.009 32.227 111.935 31.8638 112.115 31.5971C112.142 31.5557 112.179 31.5143 112.216 31.4821L112.207 31.4867Z" fill="#212123"/>
<path d="M39.7751 137.374L53.7268 83.4259L22.6761 77.3428C22.6761 77.3428 -0.897276 138.698 0.0276199 151.435C0.952516 164.171 39.7797 137.374 39.7797 137.374H39.7751Z" fill="#19355D"/>
<path d="M17.8537 71.6642L47.1099 58.5186L52.9492 71.1998C55.2683 76.3588 54.6149 86.3411 49.3738 89.9689C44.1327 93.5967 38.9469 94.337 38.9469 94.337C33.1674 95.6014 27.2913 92.6449 24.8664 87.2515L17.8537 71.6642Z" fill="#FFD1BF"/>
<path d="M56.4785 54.3344C58.3789 54.877 59.4787 56.8587 58.9311 58.7577L53.8925 76.3129L47.0087 74.3403L52.0473 56.7851C52.5903 54.8862 54.5735 53.7873 56.4739 54.3344H56.4785Z" fill="#FFD1BF"/>
<path d="M111.553 76.851C111.438 76.851 111.342 76.7682 111.323 76.6533C111.305 76.5291 111.397 76.4096 111.521 76.3958C112.478 76.2671 113.449 76.2211 114.416 76.2579C114.544 76.2625 114.641 76.3682 114.636 76.497C114.632 76.6257 114.526 76.7177 114.397 76.7177C113.459 76.6809 112.511 76.7269 111.581 76.851C111.572 76.851 111.558 76.851 111.549 76.851H111.553Z" fill="#212123"/>
<path d="M62.7404 49.8735L59.5745 45.3081L48.141 53.2249L51.307 57.7903L62.7404 49.8735Z" fill="white"/>
<path opacity="0.3" d="M113.266 35.8459C115.972 20.6191 105.813 6.08335 90.5747 3.37928C75.3365 0.675211 60.7897 10.8268 58.0836 26.0536C55.3775 41.2803 65.5368 55.8161 80.775 58.5202C96.0133 61.2242 110.56 51.0726 113.266 35.8459Z" fill="white"/>
<path d="M85.7438 61.935C83.8848 61.935 82.0166 61.7695 80.1484 61.4292C72.0038 59.9533 64.9222 55.3966 60.2057 48.5962C55.4892 41.7958 53.7084 33.5699 55.1855 25.4315C56.6625 17.293 61.2226 10.2167 68.0282 5.50375C82.0719 -4.22102 101.421 -0.717348 111.153 13.3203C115.87 20.1208 117.65 28.3466 116.173 36.4851C114.696 44.6235 110.136 51.6998 103.331 56.4128C98.085 60.0452 91.9926 61.935 85.7438 61.935ZM85.638 2.29894C80.0012 2.29894 74.3138 3.94962 69.3396 7.39352C63.0402 11.757 58.8206 18.3046 57.4494 25.8407C56.0828 33.3768 57.7347 40.9911 62.0969 47.2858C66.4637 53.5804 73.0162 57.7968 80.558 59.167C88.0998 60.5326 95.7198 58.8819 102.019 54.523C108.319 50.1595 112.538 43.612 113.909 36.0758C115.276 28.5397 113.624 20.9254 109.262 14.6308C103.699 6.60727 94.7397 2.29894 85.638 2.29894V2.29894Z" fill="#3684F7"/>
<path opacity="0.3" d="M85.6794 55.4932C99.2399 55.4932 110.233 44.5085 110.233 30.9583C110.233 17.408 99.2399 6.42334 85.6794 6.42334C72.1189 6.42334 61.126 17.408 61.126 30.9583C61.126 44.5085 72.1189 55.4932 85.6794 55.4932Z" fill="white"/>
<path d="M85.73 55.9576C84.23 55.9576 82.7207 55.8243 81.2114 55.5484C74.6359 54.3575 68.9209 50.6791 65.1154 45.1891C57.2607 33.8596 60.0906 18.2586 71.4287 10.4098C82.7667 2.56104 98.3795 5.38881 106.234 16.7183C110.04 22.2037 111.48 28.8478 110.288 35.4137C109.096 41.9843 105.415 47.695 99.921 51.4975C95.6876 54.4311 90.7687 55.953 85.7254 55.953L85.73 55.9576ZM85.6426 6.88776C80.9077 6.88776 76.1314 8.27635 71.9532 11.1685C61.0339 18.7276 58.3053 33.7585 65.8747 44.6695C69.5421 49.9572 75.0454 53.4977 81.3771 54.6472C87.7087 55.7967 94.1093 54.4081 99.401 50.7481C104.693 47.0835 108.236 41.5843 109.386 35.2574C110.537 28.9306 109.147 22.5347 105.484 17.247C100.814 10.511 93.2903 6.89235 85.6472 6.89235L85.6426 6.88776Z" fill="#212123"/>
<path d="M53.8824 56.1979L50.7584 51.693C49.9579 50.5387 48.3726 50.2514 47.2175 51.0513L21.8771 68.5977C20.7219 69.3975 20.4344 70.9816 21.2349 72.1359L24.3589 76.6408C25.1593 77.795 26.7446 78.0823 27.8998 77.2825L53.2402 59.7361C54.3953 58.9363 54.6829 57.3522 53.8824 56.1979Z" fill="#212123"/>
<path d="M16.4641 66.1053L20.3063 64.3075C21.0333 63.9672 21.903 64.2799 22.2435 65.0064L26.0904 72.5471C26.9278 74.3357 26.1594 76.4646 24.3648 77.3014C22.5748 78.1383 20.4444 77.3704 19.6069 75.5772L15.7601 68.0364C15.4196 67.31 15.7325 66.4409 16.4595 66.1007L16.4641 66.1053Z" fill="#FFD1BF"/>
<path d="M22.2987 61.6317L26.141 59.8338C26.868 59.4936 27.7377 59.8062 28.0782 60.5327L31.925 68.0735C32.7625 69.8621 31.994 71.9909 30.1995 72.8278C28.4095 73.6646 26.279 72.8968 25.4415 71.1035L21.5947 63.5628C21.2542 62.8363 21.5671 61.9673 22.2941 61.6271L22.2987 61.6317Z" fill="#FFD1BF"/>
<path d="M28.8558 57.4334L32.6981 55.6356C33.4251 55.2953 34.2948 55.608 34.6353 56.3345L38.4821 63.8752C39.3196 65.6638 38.5511 67.7927 36.7566 68.6295C34.9666 69.4664 32.8361 68.6985 31.9986 66.9053L28.1518 59.3646C27.8113 58.6381 28.1242 57.7691 28.8512 57.4288L28.8558 57.4334Z" fill="#FFD1BF"/>
<path d="M35.5142 53.7181L39.3564 51.9203C40.0834 51.58 40.9531 51.8927 41.2936 52.6192L45.1404 60.1599C45.9779 61.9485 45.2095 64.0774 43.4149 64.9142C41.6249 65.751 39.4944 64.9832 38.657 63.19L34.8101 55.6492C34.4696 54.9228 34.7825 54.0537 35.5096 53.7135L35.5142 53.7181Z" fill="#FFD1BF"/>
<path d="M51.9463 89.3607L39.5548 137.308L40.0003 137.423L52.3919 89.4756L51.9463 89.3607Z" fill="#E5EBF6"/>
<path d="M149.055 65.8892C158.64 65.8892 178.965 94.852 178.965 94.852L197.058 120.081C197.058 120.081 189.383 139.751 182.462 137.71C164.475 132.404 149.055 120.081 149.055 120.081V65.8892V65.8892Z" fill="#19355D"/>
<path d="M68.3404 87.6898L67.8802 87.6938L68.1862 122.725L68.6463 122.721L68.3404 87.6898Z" fill="#E5EBF6"/>
<path d="M97.2981 86.7687L87.6488 79.8165L92.6921 68.2388L93.1154 68.4227L88.2194 79.6602L97.5696 86.3963L97.2981 86.7687Z" fill="#E5EBF6"/>
<path d="M113.574 110.591L92.3377 90.5439L101.835 82.7227L102.13 83.0767L93.0326 90.5668L113.886 110.26L113.574 110.591Z" fill="#E5EBF6"/>
<path d="M129.196 85.1409L128.896 84.7915L137.676 77.3197L131.883 66.519L132.292 66.2983L138.256 77.4301L129.196 85.1409Z" fill="#E5EBF6"/>
<path d="M114.903 110.2L114.563 109.892L133.76 88.5851L124.088 81.8536L124.35 81.4766L134.45 88.5023L134.276 88.6954L114.903 110.2Z" fill="#E5EBF6"/>
<path d="M113.65 111.526L112.912 174.569L113.372 174.575L114.11 111.531L113.65 111.526Z" fill="#E5EBF6"/>
<path d="M174.065 88.989L167.235 105.755L167.661 105.929L174.491 89.1624L174.065 88.989Z" fill="#E5EBF6"/>
<path d="M355.855 65.8896C369.908 70.6854 407.46 119.953 407.46 119.953C407.46 119.953 428.917 147.637 431.567 155.56C434.218 163.482 424.638 161.206 405.891 160.765C387.145 160.323 355.855 120.082 355.855 120.082V65.8896V65.8896Z" fill="white"/>
<path d="M300.131 65.1816L306.601 64.2344L322.158 65.0574L329.346 68.1565L331.628 68.2346L333.533 79.5273L313.526 122.716L296.192 72.1199L300.131 65.1816Z" fill="white"/>
<path d="M325.77 66.8411L306.601 66.0411L309.224 45.0972L326.479 45.8145L325.77 66.8411Z" fill="#FFD1BF"/>
<path d="M308.446 51.291L321.496 54.2291L307.645 57.696L308.446 51.291Z" fill="#212123"/>
<path d="M331.016 37.2807C333.901 36.6323 336.625 38.4761 337.108 41.4005C337.587 44.3248 335.641 47.2215 332.755 47.8699C329.87 48.5182 327.146 46.6744 326.663 43.75C326.185 40.8257 328.131 37.929 331.016 37.2807V37.2807Z" fill="#FFD1BF"/>
<path d="M304.516 36.4164C301.594 35.7359 298.815 37.5843 298.309 40.5454C297.798 43.5065 299.754 46.4584 302.676 47.1389C305.598 47.8194 308.377 45.971 308.883 43.0099C309.389 40.0488 307.438 37.0969 304.516 36.4164Z" fill="#FFD1BF"/>
<path d="M314.718 67.1585L307.088 60.873L304.387 64.9285L308.515 75.4947L314.718 67.1585Z" fill="white"/>
<path d="M314.718 67.1583L326.134 61.958L329.346 68.1561L321.68 76.0463L314.718 67.1583Z" fill="white"/>
<path d="M278.141 65.8896L298.226 65.2919C301.949 64.9746 300.136 65.1815 300.136 65.1815L312.946 125.093L331.633 68.2346L334.449 68.3312L355.859 65.8896L359.237 94.7513L358.349 175.042L274.975 174.15L274.404 112.532L278.145 65.8896H278.141Z" fill="#375168"/>
<path d="M278.141 65.8896L298.226 65.2919C301.949 64.9746 300.136 65.1815 300.136 65.1815L313.618 110.426L331.628 68.2346L334.444 68.3312L355.855 65.8896L359.232 94.7513L358.344 175.042L274.97 174.15L274.4 112.532L278.141 65.8896V65.8896Z" fill="white"/>
<path d="M310.733 71.5218L312.836 76.1474L316.595 76.3037L318.491 71.9356L315.113 67.9399L310.733 71.5218Z" fill="#554DF0"/>
<path d="M305.611 75.7061C305.561 75.7061 305.51 75.6969 305.46 75.6785C305.317 75.6279 305.211 75.513 305.17 75.3658C304.222 71.9265 303.771 68.3723 303.835 64.8042C303.835 64.5513 304.047 64.3352 304.305 64.3536C304.558 64.3536 304.76 64.5651 304.756 64.8226C304.7 68.0826 305.078 71.3288 305.887 74.483C308.878 72.3036 311.828 69.9908 314.653 67.6044C314.847 67.4389 315.136 67.4665 315.302 67.6596C315.468 67.8527 315.44 68.1424 315.247 68.3079C312.233 70.8552 309.081 73.3197 305.883 75.6233C305.805 75.6785 305.708 75.7107 305.616 75.7107L305.611 75.7061Z" fill="#212123"/>
<path d="M322.761 76.8832C322.641 76.8832 322.526 76.8372 322.444 76.7544C319.71 74.1244 317.17 71.2552 314.893 68.2205C314.741 68.0182 314.782 67.7286 314.985 67.5768C315.187 67.4251 315.477 67.4665 315.629 67.6688C317.768 70.5195 320.147 73.2278 322.701 75.7245C324.588 73.1772 326.608 70.6943 328.711 68.3309C328.881 68.1424 329.171 68.124 329.36 68.2941C329.548 68.4642 329.567 68.7539 329.396 68.9424C327.197 71.4162 325.085 74.0232 323.129 76.6947C323.051 76.8004 322.931 76.8694 322.798 76.8832C322.784 76.8832 322.77 76.8832 322.756 76.8832H322.761Z" fill="#212123"/>
<path d="M305.243 134.514L313.618 159.918L323.373 135.852L316.595 76.5383L312.836 76.1475L305.243 134.514Z" fill="#554DF0"/>
<path d="M333.533 37.8004C333.533 47.1389 326.47 54.7072 317.75 54.7072C309.03 54.7072 301.981 47.1389 301.981 37.8004C301.981 36.2785 302.169 34.8163 302.51 33.4231C303.651 28.8619 306.527 25.0547 310.337 22.8799C310.871 22.5718 311.428 22.3005 311.994 22.0614C312.776 21.7304 313.59 21.4683 314.428 21.2706C315.5 21.0269 316.614 20.8936 317.755 20.8936C324.514 20.8936 330.28 25.4456 332.535 31.8368C332.604 32.0345 332.668 32.2368 332.728 32.4391C333.252 34.122 333.538 35.9198 333.538 37.7958L333.533 37.8004Z" fill="#FFD1BF"/>
<path d="M328.941 32.0896C327.464 29.3354 325.655 26.7375 323.865 24.1764C323.221 23.2522 322.545 22.3234 321.804 21.459C328.55 23.3028 333.529 29.6204 333.529 37.152C333.529 38.9866 333.22 40.7476 332.673 42.3937C331.932 38.8118 330.685 35.3495 328.936 32.0896H328.941Z" fill="#212123"/>
<path d="M304.857 33.7634C303.982 36.7567 303.421 39.8144 303.012 42.8997C302.354 41.111 301.976 39.1753 301.976 37.1476C301.976 31.7311 304.558 26.9492 308.51 23.9927C307.001 27.1285 305.818 30.4713 304.857 33.7588V33.7634Z" fill="#212123"/>
<path d="M302.51 33.4228C305.501 33.2067 308.46 31.9699 310.517 29.841C311.372 28.972 312.09 27.919 312.665 26.8063C313.098 25.997 313.448 25.1648 313.733 24.328C314.073 23.3394 314.327 22.3095 314.423 21.2749C312.978 21.606 311.602 22.1531 310.332 22.8842C306.522 25.0591 303.647 28.8662 302.505 33.4274L302.51 33.4228Z" fill="#212123"/>
<path d="M322.821 39.3681C322.83 39.9245 322.384 40.3613 321.827 40.3337C321.266 40.3107 320.805 39.8371 320.796 39.2808C320.787 38.7244 321.233 38.2876 321.79 38.3152C322.347 38.3428 322.812 38.8118 322.821 39.3681Z" fill="#212123"/>
<path d="M314.543 39.3681C314.552 39.9245 314.106 40.3613 313.549 40.3337C312.987 40.3107 312.527 39.8371 312.518 39.2808C312.509 38.7244 312.955 38.2876 313.512 38.3152C314.073 38.3382 314.534 38.8118 314.543 39.3681Z" fill="#212123"/>
<path d="M318.532 41.5476C318.532 41.5476 318.505 41.5476 318.491 41.5476L315.992 41.3177C315.863 41.3039 315.744 41.2395 315.666 41.1337C315.587 41.028 315.56 40.8947 315.583 40.7659L316.577 35.9104C316.627 35.6621 316.871 35.5012 317.12 35.5518C317.368 35.6024 317.529 35.846 317.479 36.0943L316.586 40.444L318.574 40.628C318.827 40.651 319.015 40.8763 318.988 41.1291C318.965 41.3682 318.767 41.5476 318.528 41.5476H318.532Z" fill="#212123"/>
<path d="M320.198 34.7153C320.46 34.4854 320.75 34.375 321.045 34.3106C321.339 34.2463 321.638 34.2463 321.933 34.2922C322.227 34.3382 322.513 34.421 322.784 34.5543C323.051 34.6923 323.309 34.8624 323.516 35.1245C323.695 35.3498 323.658 35.6808 323.428 35.8602C323.378 35.8969 323.327 35.9291 323.272 35.9475L323.24 35.9567C322.945 36.0533 322.692 36.0809 322.444 36.1084C322.195 36.1268 321.96 36.1268 321.73 36.1084C321.496 36.0947 321.27 36.0625 321.035 35.9935C320.801 35.9245 320.562 35.8372 320.299 35.6578L320.267 35.6349C320 35.4555 319.927 35.0923 320.106 34.8256C320.134 34.7842 320.17 34.7428 320.207 34.7107L320.198 34.7153Z" fill="#212123"/>
<path d="M315.044 35.4646C314.777 35.6439 314.543 35.7313 314.308 35.8003C314.073 35.8692 313.843 35.9014 313.613 35.9152C313.379 35.929 313.144 35.9336 312.9 35.9152C312.652 35.8876 312.394 35.86 312.104 35.7635L312.076 35.7543C311.8 35.6623 311.653 35.368 311.745 35.0922C311.764 35.0324 311.796 34.9772 311.833 34.9312C312.04 34.6691 312.297 34.499 312.564 34.3611C312.836 34.2277 313.121 34.145 313.415 34.099C313.71 34.0576 314.009 34.053 314.304 34.1174C314.598 34.1818 314.888 34.2921 315.15 34.522C315.394 34.7335 315.417 35.1014 315.205 35.345C315.173 35.3818 315.132 35.4186 315.095 35.4416L315.058 35.4646H315.044Z" fill="#212123"/>
<path d="M394.802 137.494L364.082 150.649L373.11 177C373.11 177 420.717 168.843 430.238 160.328C439.758 151.812 394.797 137.494 394.797 137.494H394.802Z" fill="white"/>
<path d="M316.59 77.1131C316.59 77.1131 316.554 77.1131 316.54 77.1131C315.353 76.9798 314.147 76.9246 312.955 76.9476C312.693 76.9476 312.491 76.7499 312.486 76.497C312.481 76.2441 312.684 76.0326 312.937 76.028C314.165 76.005 315.417 76.0602 316.646 76.1981C316.899 76.2257 317.078 76.4556 317.051 76.7085C317.023 76.943 316.825 77.1177 316.595 77.1177L316.59 77.1131Z" fill="#212123"/>
<path d="M364.768 150.819C364.588 150.819 364.418 150.714 364.345 150.539C364.243 150.304 364.354 150.038 364.588 149.936L394.622 137.071C394.852 136.97 395.124 137.08 395.225 137.315C395.326 137.549 395.216 137.816 394.981 137.917L364.947 150.783C364.888 150.81 364.828 150.819 364.768 150.819V150.819Z" fill="#212123"/>
<path d="M278.292 65.8896C268.708 65.8896 248.383 94.8524 248.383 94.8524L228.661 123.245C228.661 123.245 239.543 139.012 246.469 136.97C264.456 131.664 278.292 120.082 278.292 120.082V65.8896Z" fill="white"/>
<path d="M358.919 123.176C358.666 123.176 358.459 122.964 358.464 122.711L358.772 87.6793C358.772 87.4264 358.979 87.2241 359.232 87.2241C359.485 87.2241 359.692 87.4356 359.688 87.6885L359.38 122.721C359.38 122.974 359.173 123.176 358.919 123.176Z" fill="#212123"/>
<path d="M314.212 175.032C313.968 175.032 313.761 174.839 313.751 174.591L313.158 159.937C313.149 159.684 313.346 159.468 313.6 159.459C313.848 159.436 314.069 159.647 314.078 159.9L314.672 174.554C314.681 174.807 314.483 175.023 314.23 175.032C314.225 175.032 314.216 175.032 314.212 175.032Z" fill="#212123"/>
<path d="M332.723 32.4437C330.551 34.7565 325.453 35.2255 320.253 33.3633C314.129 31.1701 310.181 26.5767 311.423 23.1052C311.556 22.7282 311.75 22.3787 311.989 22.0614C312.771 21.7304 313.586 21.4683 314.423 21.2706C315.495 21.0269 316.609 20.8936 317.75 20.8936C324.51 20.8936 330.275 25.4456 332.53 31.8368C332.599 32.0345 332.663 32.2368 332.723 32.4391V32.4437Z" fill="#212123"/>
<path d="M315.044 44.3338C315.182 45.6489 316.268 46.6052 317.58 46.665C318.905 46.7248 320.078 45.8696 320.672 44.7247C320.943 44.2005 320.152 43.7361 319.876 44.2603C319.453 45.0741 318.693 45.727 317.736 45.7454C316.913 45.7592 316.052 45.2074 315.96 44.3338C315.932 44.0855 315.767 43.874 315.5 43.874C315.27 43.874 315.012 44.0855 315.04 44.3338H315.044Z" fill="#212123"/>
<path d="M311.994 22.0615C311.994 22.0615 318.127 18.7739 325.913 21.8316C333.699 24.8893 336.004 23.611 336.506 21.2706C336.506 21.2706 340.026 27.7768 332.41 32.7427L311.994 22.0569V22.0615Z" fill="#212123"/>
<path d="M274.4 123.484C274.147 123.484 273.939 123.277 273.939 123.024V94.6268C273.939 94.3739 274.147 94.167 274.4 94.167C274.653 94.167 274.86 94.3739 274.86 94.6268V123.024C274.86 123.277 274.653 123.484 274.4 123.484Z" fill="#212123"/>
<path d="M262.758 103.892L273.953 54.4683L242.313 54.9465C242.313 54.9465 224.911 110.472 228.458 122.739C232.006 135.007 262.762 103.888 262.762 103.888L262.758 103.892Z" fill="white"/>
<path d="M260.038 119.759C260.006 119.759 259.974 119.759 259.942 119.75C259.693 119.695 259.537 119.451 259.587 119.203L273.502 54.3712C273.558 54.123 273.797 53.962 274.05 54.0172C274.298 54.0724 274.455 54.3161 274.404 54.5644L260.489 119.396C260.443 119.612 260.25 119.759 260.038 119.759V119.759Z" fill="#212123"/>
<path d="M238.273 35.0321L267.686 25.0591L274.252 43.8971C276.254 49.1894 273.479 53.2862 268.026 56.5922C262.574 59.8935 257.356 60.3165 257.356 60.3165C251.512 61.2223 245.824 57.9164 243.735 52.385L238.278 35.0321H238.273Z" fill="#FFD1BF"/>
<path d="M267.921 31.2598L260.762 31.1237L261.148 10.8502C261.165 9.99048 261.877 9.30501 262.738 9.32137L266.777 9.39816C267.637 9.41452 268.323 10.1266 268.307 10.9863L267.921 31.2598Z" fill="#FFD1BF"/>
<path d="M266.468 42.9648L259.744 45.4247L252.767 26.3838C252.471 25.5764 252.888 24.6798 253.696 24.3841L257.49 22.9961C258.298 22.7005 259.195 23.1165 259.491 23.9239L266.468 42.9648Z" fill="#FFD1BF"/>
<path d="M258.885 46.3809L252.162 48.8407L245.185 29.7998C244.889 28.9924 245.305 28.0958 246.113 27.8002L249.907 26.4121C250.715 26.1165 251.612 26.5325 251.908 27.3399L258.885 46.3809Z" fill="#FFD1BF"/>
<path d="M251.666 50.8623L244.942 53.3222L237.965 34.2812C237.669 33.4738 238.086 32.5772 238.894 32.2816L242.687 30.8936C243.495 30.5979 244.393 31.0139 244.689 31.8213L251.666 50.8623Z" fill="#FFD1BF"/>
<path d="M264.525 31.5334L267.907 29.0183C268.56 28.5355 269.481 28.6689 269.964 29.3218L278.481 39.6489L272.738 43.9205L264.221 33.5933C263.738 32.9404 263.871 32.0208 264.525 31.538V31.5334Z" fill="#FFD1BF"/>
<path d="M278.481 39.644C279.746 42.8902 276.539 48.5688 273.125 52.2472C269.711 55.9256 269.918 40.4947 269.918 40.4947L278.481 39.644Z" fill="#FFD1BF"/>
<path d="M261.695 51.985C261.695 51.985 261.686 51.985 261.681 51.985C261.552 51.9758 261.456 51.87 261.465 51.7413C261.888 44.3017 267.622 40.3566 268.869 39.5841L264.865 34.7287C264.235 33.9884 263.959 33.2251 264.042 32.4618C264.129 31.6894 264.589 31.0962 264.99 30.7974L267.175 29.1421C269.315 27.9512 270.438 29.4685 270.921 30.1123C270.994 30.2134 270.981 30.3698 270.879 30.4433C270.778 30.5215 270.64 30.5077 270.567 30.4065L270.553 30.3881C270.074 29.7444 269.181 28.549 267.428 29.5283L265.266 31.1652C264.939 31.4089 264.571 31.8871 264.497 32.5124C264.424 33.1424 264.667 33.7861 265.215 34.4298L269.393 39.4968C269.435 39.552 269.453 39.6209 269.444 39.6853C269.43 39.7543 269.389 39.8095 269.329 39.8416C269.26 39.8784 262.39 43.7132 261.93 51.7643C261.925 51.8884 261.819 51.9804 261.699 51.9804L261.695 51.985Z" fill="#212123"/>
<path d="M311.451 43.8835C308.671 43.8835 306.407 41.6213 306.407 38.8441C306.407 36.0669 308.671 33.8047 311.451 33.8047C314.23 33.8047 316.494 36.0669 316.494 38.8441C316.494 41.6213 314.23 43.8835 311.451 43.8835ZM311.451 34.7243C309.177 34.7243 307.328 36.5727 307.328 38.8441C307.328 41.1155 309.177 42.9639 311.451 42.9639C313.724 42.9639 315.574 41.1155 315.574 38.8441C315.574 36.5727 313.724 34.7243 311.451 34.7243V34.7243Z" fill="#868686"/>
<path d="M323.336 43.8835C320.557 43.8835 318.293 41.6213 318.293 38.8441C318.293 36.0669 320.557 33.8047 323.336 33.8047C326.116 33.8047 328.379 36.0669 328.379 38.8441C328.379 41.6213 326.116 43.8835 323.336 43.8835ZM323.336 34.7243C321.063 34.7243 319.213 36.5727 319.213 38.8441C319.213 41.1155 321.063 42.9639 323.336 42.9639C325.609 42.9639 327.459 41.1155 327.459 38.8441C327.459 36.5727 325.609 34.7243 323.336 34.7243V34.7243Z" fill="#868686"/>
<path d="M318.753 39.304C318.647 39.304 318.537 39.2672 318.449 39.189C317.391 38.2648 316.452 39.0832 316.347 39.1798C316.163 39.3499 315.868 39.3407 315.698 39.1568C315.523 38.9729 315.532 38.6832 315.716 38.5085C316.273 37.9797 317.681 37.2992 319.052 38.4947C319.246 38.6602 319.264 38.9545 319.098 39.143C319.006 39.2488 318.877 39.2994 318.753 39.2994V39.304Z" fill="#868686"/>
<path d="M306.762 39.0047C306.702 39.0047 306.638 38.9909 306.578 38.9633L301.811 36.8667C301.581 36.7655 301.475 36.4942 301.576 36.2597C301.677 36.0298 301.949 35.9195 302.183 36.0252L306.95 38.1219C307.18 38.2231 307.286 38.4944 307.185 38.7288C307.107 38.899 306.941 39.0047 306.762 39.0047V39.0047Z" fill="#868686"/>
<path d="M328.283 39.0049C328.108 39.0049 327.938 38.9038 327.859 38.729C327.758 38.4945 327.859 38.2233 328.094 38.1221L332.861 36.0254C333.096 35.9243 333.367 36.0254 333.469 36.2599C333.57 36.4944 333.469 36.7657 333.234 36.8668L328.467 38.9635C328.407 38.9911 328.343 39.0049 328.283 39.0049V39.0049Z" fill="#868686"/>
<path d="M364.768 152.64C364.768 152.64 359.481 153.527 355.855 155.978C352.229 158.429 351.783 161.794 356.688 175.041H373.115L364.768 152.635V152.64Z" fill="#FFD1BF"/>
</g>
<defs>
<clipPath id="clip0_21_1159">
<rect width="432" height="177" fill="white"/>
</clipPath>
</defs>
</svg>
