<svg width="493" height="323" viewBox="0 0 493 323" fill="none" xmlns="http://www.w3.org/2000/svg">
<path d="M432.353 24.121C432.353 10.9674 421.82 0.309814 408.832 0.309814H23.5961C10.6081 0.309814 0.0846558 10.9769 0.0846558 24.121V24.548H432.353V24.121Z" fill="#3C3D46"/>
<path d="M0.0846558 24.5481V297.992C0.0846558 311.145 10.6081 321.803 23.5961 321.803H408.832C421.82 321.803 432.353 311.136 432.353 297.992V24.5481H0.0846558Z" fill="url(#paint0_linear_26_1707)"/>
<path d="M421.258 127.129C421.258 134.607 415.355 140.662 408.064 140.662H261.654C254.363 140.662 248.46 134.607 248.46 127.129V54.4331C248.46 46.9547 254.363 40.8999 261.654 40.8999H408.064C415.355 40.8999 421.258 46.9547 421.258 54.4331V127.119V127.129Z" fill="#4163CE"/>
<path d="M421.211 127.081C421.211 134.55 415.308 140.605 408.026 140.605H261.654C254.372 140.605 248.469 134.55 248.469 127.081V54.4331C248.469 46.9642 254.372 40.8999 261.654 40.8999H408.026C415.308 40.8999 421.211 46.9547 421.211 54.4331V127.081Z" fill="#4264CF"/>
<path d="M421.164 127.034C421.164 134.503 415.261 140.557 407.98 140.557H261.654C254.372 140.557 248.469 134.503 248.469 127.034V54.4236C248.469 46.9547 254.372 40.8999 261.654 40.8999H407.98C415.261 40.8999 421.164 46.9547 421.164 54.4236V127.034Z" fill="#4364D0"/>
<path d="M421.118 126.986C421.118 134.446 415.214 140.501 407.933 140.501H261.644C254.363 140.501 248.46 134.455 248.46 126.986V54.4141C248.46 46.9452 254.363 40.8999 261.644 40.8999H407.933C415.214 40.8999 421.118 46.9452 421.118 54.4141V126.986Z" fill="#4465D1"/>
<path d="M421.071 126.948C421.071 134.408 415.167 140.453 407.895 140.453H261.644C254.363 140.453 248.469 134.408 248.469 126.948V54.4046C248.469 46.9452 254.372 40.8999 261.644 40.8999H407.895C415.176 40.8999 421.071 46.9452 421.071 54.4046V126.939V126.948Z" fill="#4466D2"/>
<path d="M421.024 126.901C421.024 134.36 415.13 140.396 407.848 140.396H261.635C254.354 140.396 248.46 134.351 248.46 126.901V54.4046C248.46 46.9452 254.354 40.8999 261.635 40.8999H407.848C415.13 40.8999 421.024 46.9452 421.024 54.4046V126.901Z" fill="#4567D3"/>
<path d="M420.986 126.853C420.986 134.303 415.092 140.349 407.811 140.349H261.635C254.363 140.349 248.46 134.313 248.46 126.853V54.3951C248.46 46.9452 254.354 40.8999 261.635 40.8999H407.811C415.083 40.8999 420.986 46.9357 420.986 54.3951V126.853Z" fill="#4667D4"/>
<path d="M420.94 126.806C420.94 134.256 415.045 140.292 407.773 140.292H261.635C254.363 140.292 248.469 134.256 248.469 126.806V54.3856C248.469 46.9357 254.363 40.8999 261.635 40.8999H407.773C415.045 40.8999 420.94 46.9357 420.94 54.3856V126.806Z" fill="#4768D5"/>
<path d="M420.893 126.759C420.893 134.199 414.998 140.235 407.727 140.235H261.635C254.363 140.235 248.469 134.199 248.469 126.759V54.3761C248.469 46.9357 254.363 40.8999 261.635 40.8999H407.727C414.998 40.8999 420.893 46.9357 420.893 54.3761V126.759Z" fill="#4869D6"/>
<path d="M420.846 126.721C420.846 134.161 414.952 140.187 407.689 140.187H261.635C254.363 140.187 248.478 134.161 248.478 126.721V54.3762C248.478 46.9358 254.372 40.9094 261.635 40.9094H407.689C414.961 40.9094 420.846 46.9358 420.846 54.3762V126.721Z" fill="#4969D7"/>
<path d="M420.799 126.673C420.799 134.114 414.905 140.14 407.642 140.14H261.626C254.363 140.14 248.469 134.114 248.469 126.673V54.3666C248.469 46.9262 254.363 40.8999 261.626 40.8999H407.642C414.905 40.8999 420.799 46.9262 420.799 54.3666V126.673Z" fill="#496AD8"/>
<path d="M420.752 126.626C420.752 134.057 414.867 140.083 407.596 140.083H261.616C254.354 140.083 248.46 134.057 248.46 126.626V54.3571C248.46 46.9262 254.344 40.8999 261.616 40.8999H407.596C414.858 40.8999 420.752 46.9262 420.752 54.3571V126.626Z" fill="#4A6BD9"/>
<path d="M420.705 126.578C420.705 134.009 414.82 140.026 407.558 140.026H261.616C254.354 140.026 248.469 134.009 248.469 126.578V54.3476C248.469 46.9167 254.354 40.8999 261.616 40.8999H407.558C414.82 40.8999 420.705 46.9167 420.705 54.3476V126.578Z" fill="#4B6CDA"/>
<path d="M420.658 126.531C420.658 133.952 414.774 139.969 407.511 139.969H261.607C254.344 139.969 248.46 133.952 248.46 126.531V54.3477C248.46 46.9263 254.344 40.9094 261.607 40.9094H407.511C414.774 40.9094 420.658 46.9263 420.658 54.3477V126.54V126.531Z" fill="#4C6CDB"/>
<path d="M420.612 126.493C420.612 133.914 414.727 139.931 407.464 139.931H261.607C254.344 139.931 248.46 133.914 248.46 126.493V54.3382C248.46 46.9168 254.344 40.8999 261.607 40.8999H407.464C414.727 40.8999 420.612 46.9168 420.612 54.3382V126.493Z" fill="#4D6DDC"/>
<path d="M420.565 126.445C420.565 133.857 414.68 139.874 407.427 139.874H261.607C254.354 139.874 248.469 133.867 248.469 126.445V54.3287C248.469 46.9073 254.354 40.8999 261.607 40.8999H407.427C414.68 40.8999 420.565 46.9073 420.565 54.3287V126.445Z" fill="#4E6EDD"/>
<path d="M420.518 126.398C420.518 133.81 414.633 139.817 407.38 139.817H261.597C254.344 139.817 248.46 133.81 248.46 126.398V54.3192C248.46 46.9073 254.344 40.8999 261.597 40.8999H407.38C414.633 40.8999 420.518 46.9073 420.518 54.3192V126.398Z" fill="#4E6EDE"/>
<path d="M420.471 126.35C420.471 133.762 414.595 139.76 407.342 139.76H261.597C254.344 139.76 248.469 133.753 248.469 126.35V54.3097C248.469 46.8978 254.344 40.8999 261.597 40.8999H407.342C414.595 40.8999 420.471 46.9073 420.471 54.3097V126.35Z" fill="#4F6FDF"/>
<path d="M420.424 126.303C420.424 133.705 414.549 139.713 407.296 139.713H261.588C254.335 139.713 248.46 133.715 248.46 126.303V54.3097C248.46 46.9073 254.335 40.8999 261.588 40.8999H407.296C414.549 40.8999 420.424 46.8978 420.424 54.3097V126.313V126.303Z" fill="#5070E0"/>
<path d="M420.377 126.265C420.377 133.667 414.502 139.665 407.249 139.665H261.588C254.335 139.665 248.46 133.667 248.46 126.265V54.3002C248.46 46.8978 254.335 40.8999 261.588 40.8999H407.249C414.502 40.8999 420.377 46.8978 420.377 54.3002V126.265Z" fill="#5171E1"/>
<path d="M420.34 126.218C420.34 133.611 414.464 139.608 407.221 139.608H261.597C254.354 139.608 248.478 133.611 248.478 126.218V54.2907C248.478 46.8978 254.354 40.8999 261.597 40.8999H407.221C414.464 40.8999 420.34 46.8978 420.34 54.2907V126.218Z" fill="#5271E2"/>
<path d="M420.293 126.17C420.293 133.563 414.417 139.551 407.174 139.551H261.588C254.344 139.551 248.469 133.563 248.469 126.17V54.2812C248.469 46.8883 254.344 40.8999 261.588 40.8999H407.174C414.417 40.8999 420.293 46.8883 420.293 54.2812V126.17Z" fill="#5372E3"/>
<path d="M420.246 126.123C420.246 133.516 414.371 139.504 407.127 139.504H261.579C254.335 139.504 248.46 133.516 248.46 126.123V54.2812C248.46 46.8883 254.335 40.8999 261.579 40.8999H407.127C414.371 40.8999 420.246 46.8883 420.246 54.2812V126.132V126.123Z" fill="#5373E4"/>
<path d="M420.199 126.075C420.199 133.459 414.333 139.447 407.089 139.447H261.579C254.335 139.447 248.469 133.459 248.469 126.075V54.2717C248.469 46.8883 254.335 40.8999 261.579 40.8999H407.089C414.333 40.8999 420.199 46.8883 420.199 54.2717V126.085V126.075Z" fill="#5473E5"/>
<path d="M420.152 126.037C420.152 133.421 414.286 139.4 407.043 139.4H261.569C254.326 139.4 248.46 133.421 248.46 126.037V54.2622C248.46 46.8788 254.326 40.8999 261.569 40.8999H407.043C414.286 40.8999 420.152 46.8788 420.152 54.2622V126.028V126.037Z" fill="#5574E6"/>
<path d="M420.106 125.99C420.106 133.364 414.239 139.343 407.005 139.343H261.579C254.344 139.343 248.478 133.364 248.478 125.99V54.2527C248.478 46.8788 254.344 40.8999 261.579 40.8999H407.005C414.239 40.8999 420.106 46.8788 420.106 54.2527V125.98V125.99Z" fill="#5675E6"/>
<path d="M420.059 125.942C420.059 133.316 414.192 139.295 406.958 139.295H261.569C254.335 139.295 248.469 133.316 248.469 125.942V54.2527C248.469 46.8788 254.335 40.8999 261.569 40.8999H406.958C414.192 40.8999 420.059 46.8788 420.059 54.2527V125.942Z" fill="#5776E7"/>
<path d="M420.012 125.895C420.012 133.269 414.146 139.238 406.911 139.238H261.56C254.326 139.238 248.46 133.269 248.46 125.895V54.2432C248.46 46.8693 254.326 40.8999 261.56 40.8999H406.911C414.146 40.8999 420.012 46.8693 420.012 54.2432V125.895Z" fill="#5876E8"/>
<path d="M419.965 125.857C419.965 133.221 414.099 139.191 406.874 139.191H261.56C254.326 139.191 248.469 133.221 248.469 125.857V54.2338C248.469 46.8693 254.335 40.8999 261.56 40.8999H406.874C414.108 40.8999 419.965 46.8693 419.965 54.2338V125.847V125.857Z" fill="#5877E9"/>
<path d="M419.918 125.81C419.918 133.174 414.061 139.134 406.827 139.134H261.551C254.316 139.134 248.46 133.165 248.46 125.81V54.2243C248.46 46.8598 254.316 40.8999 261.551 40.8999H406.827C414.061 40.8999 419.918 46.8693 419.918 54.2243V125.8V125.81Z" fill="#5978EA"/>
<path d="M419.871 125.762C419.871 133.117 414.014 139.086 406.78 139.086H261.541C254.316 139.086 248.45 133.127 248.45 125.762V54.2243C248.45 46.8693 254.307 40.8999 261.541 40.8999H406.78C414.005 40.8999 419.871 46.8598 419.871 54.2243V125.762Z" fill="#5A78EB"/>
<path d="M419.824 125.715C419.824 133.07 413.968 139.03 406.743 139.03H261.551C254.326 139.03 248.469 133.07 248.469 125.715V54.2148C248.469 46.8598 254.326 40.8999 261.551 40.8999H406.743C413.968 40.8999 419.824 46.8598 419.824 54.2148V125.715Z" fill="#5B79EC"/>
<path d="M419.778 125.667C419.778 133.013 413.921 138.973 406.696 138.973H261.541C254.316 138.973 248.46 133.013 248.46 125.667V54.2053C248.46 46.8598 254.316 40.8999 261.541 40.8999H406.696C413.921 40.8999 419.778 46.8598 419.778 54.2053V125.667Z" fill="#5C7AED"/>
<path d="M419.731 125.629C419.731 132.975 413.874 138.925 406.658 138.925H261.541C254.316 138.925 248.469 132.975 248.469 125.629V54.1958C248.469 46.8503 254.326 40.8999 261.541 40.8999H406.658C413.883 40.8999 419.731 46.8503 419.731 54.1958V125.62V125.629Z" fill="#5D7BEE"/>
<path d="M419.693 125.582C419.693 132.927 413.836 138.878 406.621 138.878H261.541C254.326 138.878 248.469 132.927 248.469 125.582V54.1958C248.469 46.8503 254.326 40.8999 261.541 40.8999H406.621C413.836 40.8999 419.693 46.8503 419.693 54.1958V125.582Z" fill="#5D7BEF"/>
<path d="M419.646 125.534C419.646 132.87 413.799 138.821 406.574 138.821H261.532C254.316 138.821 248.46 132.87 248.46 125.534V54.1863C248.46 46.8503 254.307 40.8999 261.532 40.8999H406.574C413.79 40.8999 419.646 46.8503 419.646 54.1863V125.534Z" fill="#5E7CF0"/>
<path d="M419.599 125.487C419.599 132.823 413.752 138.764 406.537 138.764H261.541C254.326 138.764 248.478 132.823 248.478 125.487V54.1768C248.478 46.8408 254.326 40.8999 261.541 40.8999H406.537C413.752 40.8999 419.599 46.8408 419.599 54.1768V125.487Z" fill="#5F7DF1"/>
<path d="M419.553 125.439C419.553 132.766 413.705 138.707 406.49 138.707H261.532C254.316 138.707 248.469 132.766 248.469 125.439V54.1673C248.469 46.8408 254.316 40.8999 261.532 40.8999H406.49C413.705 40.8999 419.553 46.8408 419.553 54.1673V125.439Z" fill="#607DF2"/>
<path d="M419.506 125.401C419.506 132.728 413.658 138.669 406.443 138.669H261.523C254.307 138.669 248.46 132.728 248.46 125.401V54.1673C248.46 46.8408 254.307 40.8999 261.523 40.8999H406.443C413.658 40.8999 419.506 46.8408 419.506 54.1673V125.401Z" fill="#617EF3"/>
<path d="M419.459 125.354C419.459 132.681 413.611 138.612 406.405 138.612H261.522C254.316 138.612 248.469 132.681 248.469 125.354V54.1578C248.469 46.8313 254.316 40.8999 261.522 40.8999H406.405C413.611 40.8999 419.459 46.8313 419.459 54.1578V125.354Z" fill="#627FF4"/>
<path d="M419.412 125.307C419.412 132.624 413.565 138.555 406.359 138.555H261.513C254.307 138.555 248.46 132.624 248.46 125.307V54.1483C248.46 46.8313 254.307 40.8999 261.513 40.8999H406.359C413.565 40.8999 419.412 46.8313 419.412 54.1483V125.307Z" fill="#6280F5"/>
<path d="M419.365 125.259C419.365 132.576 413.527 138.498 406.321 138.498H261.513C254.307 138.498 248.469 132.567 248.469 125.259V54.1389C248.469 46.8218 254.307 40.8999 261.513 40.8999H406.321C413.527 40.8999 419.365 46.8313 419.365 54.1389V125.259Z" fill="#6380F6"/>
<path d="M419.318 125.212C419.318 132.519 413.48 138.451 406.274 138.451H261.513C254.307 138.451 248.469 132.529 248.469 125.212V54.1389C248.469 46.8313 254.307 40.8999 261.513 40.8999H406.274C413.48 40.8999 419.318 46.8218 419.318 54.1389V125.221V125.212Z" fill="#6481F7"/>
<path d="M419.272 125.174C419.272 132.481 413.434 138.403 406.227 138.403H261.504C254.298 138.403 248.46 132.481 248.46 125.174V54.1294C248.46 46.8218 254.298 40.8999 261.504 40.8999H406.227C413.434 40.8999 419.272 46.8218 419.272 54.1294V125.174Z" fill="#6582F8"/>
<path d="M419.225 125.126C419.225 132.424 413.387 138.346 406.19 138.346H261.504C254.307 138.346 248.469 132.424 248.469 125.126V54.1199C248.469 46.8218 254.307 40.8999 261.504 40.8999H406.19C413.387 40.8999 419.225 46.8218 419.225 54.1199V125.126Z" fill="#6682F9"/>
<path d="M419.178 125.079C419.178 132.377 413.34 138.289 406.143 138.289H261.494C254.298 138.289 248.46 132.377 248.46 125.079V54.1104C248.46 46.8124 254.298 40.8999 261.494 40.8999H406.143C413.34 40.8999 419.178 46.8124 419.178 54.1104V125.079Z" fill="#6783FA"/>
<path d="M419.131 125.031C419.131 132.329 413.293 138.242 406.096 138.242H261.485C254.288 138.242 248.45 132.329 248.45 125.031V54.1104C248.45 46.8124 254.288 40.8999 261.485 40.8999H406.096C413.293 40.8999 419.131 46.8124 419.131 54.1104V125.041V125.031Z" fill="#6784FB"/>
<path d="M419.093 124.984C419.093 132.272 413.265 138.185 406.068 138.185H261.494C254.297 138.185 248.469 132.272 248.469 124.984V54.1009C248.469 46.8124 254.297 40.8999 261.494 40.8999H406.068C413.265 40.8999 419.093 46.8124 419.093 54.1009V124.993V124.984Z" fill="#6885FC"/>
<path d="M261.485 40.8999H406.012C413.199 40.8999 419.037 46.8124 419.037 54.0914V124.946C419.037 132.225 413.199 138.137 406.012 138.137H261.485C254.298 138.137 248.46 132.225 248.46 124.946V54.0914C248.46 46.8124 254.298 40.8999 261.485 40.8999Z" fill="#6985FD"/>
<path d="M261.485 40.8999H405.974C413.162 40.8999 418.99 46.8124 418.99 54.0819V124.889C418.99 132.168 413.152 138.071 405.974 138.071H261.485C254.297 138.071 248.469 132.159 248.469 124.889V54.0819C248.469 46.8029 254.307 40.8999 261.485 40.8999Z" fill="#6A86FE"/>
<path d="M231.648 295.999C231.648 303.382 225.857 309.371 218.716 309.371H26.7731C19.6325 309.371 13.8507 303.382 13.8507 295.999V53.7781C13.8507 46.3946 19.6419 40.4062 26.7731 40.4062H218.726C225.866 40.4062 231.658 46.3946 231.658 53.7781V295.999H231.648Z" fill="#4F39BC"/>
<path d="M231.573 295.904C231.573 303.278 225.782 309.266 218.651 309.266H26.7635C19.6229 309.266 13.8411 303.287 13.8411 295.904V53.7686C13.8411 46.3946 19.6229 40.4062 26.7635 40.4062H218.641C225.782 40.4062 231.564 46.3851 231.564 53.7686V295.904H231.573Z" fill="#503ABD"/>
<path d="M231.489 295.799C231.489 303.173 225.707 309.152 218.566 309.152H26.7637C19.6325 309.152 13.8507 303.173 13.8507 295.799V53.7591C13.8507 46.3851 19.6325 40.4062 26.7637 40.4062H218.576C225.707 40.4062 231.498 46.3851 231.498 53.7591V295.799H231.489Z" fill="#513BBE"/>
<path d="M231.414 295.705C231.414 303.069 225.632 309.048 218.501 309.048H26.7541C19.6229 309.048 13.8411 303.079 13.8411 295.705V53.7496C13.8411 46.3851 19.6229 40.4062 26.7541 40.4062H218.491C225.623 40.4062 231.404 46.3756 231.404 53.7496V295.705H231.414Z" fill="#523CBF"/>
<path d="M231.33 295.6C231.33 302.965 225.548 308.934 218.417 308.934H26.7543C19.6231 308.934 13.8507 302.965 13.8507 295.6V53.7401C13.8507 46.3756 19.6325 40.4062 26.7543 40.4062H218.417C225.548 40.4062 231.33 46.3756 231.33 53.7401V295.6Z" fill="#523DC0"/>
<path d="M231.245 295.505C231.245 302.86 225.463 308.83 218.341 308.83H26.7447C19.6229 308.83 13.8411 302.87 13.8411 295.505V53.7306C13.8411 46.3756 19.6135 40.4062 26.7447 40.4062H218.341C225.473 40.4062 231.245 46.3662 231.245 53.7306V295.505Z" fill="#533EC1"/>
<path d="M231.17 295.401C231.17 302.756 225.398 308.716 218.267 308.716H26.745C19.6231 308.716 13.8507 302.756 13.8507 295.401V53.7211C13.8507 46.3662 19.6231 40.4062 26.745 40.4062H218.267C225.388 40.4062 231.17 46.3662 231.17 53.7211V295.401Z" fill="#543EC2"/>
<path d="M231.086 295.306C231.086 302.651 225.313 308.602 218.191 308.602H26.7354C19.6135 308.602 13.8411 302.651 13.8411 295.306V53.7116C13.8411 46.3661 19.6135 40.4062 26.7354 40.4062H218.191C225.313 40.4062 231.086 46.3661 231.086 53.7116V295.306Z" fill="#553FC3"/>
<path d="M231.011 295.202C231.011 302.547 225.239 308.488 218.117 308.488H26.7356C19.6138 308.488 13.8507 302.538 13.8507 295.202V53.7021C13.8507 46.3661 19.6231 40.4062 26.7356 40.4062H218.117C225.239 40.4062 231.011 46.3567 231.011 53.7021V295.202Z" fill="#5640C4"/>
<path d="M230.926 295.107C230.926 302.443 225.154 308.384 218.042 308.384H26.726C19.6135 308.384 13.8411 302.443 13.8411 295.107V53.6927C13.8411 46.3567 19.6135 40.4062 26.726 40.4062H218.032C225.145 40.4062 230.917 46.3567 230.917 53.6927V295.107H230.926Z" fill="#5741C5"/>
<path d="M230.842 295.002C230.842 302.329 225.079 308.27 217.957 308.27H26.7262C19.6138 308.27 13.8507 302.329 13.8507 295.002V53.6832C13.8507 46.3567 19.6138 40.4158 26.7262 40.4158H217.967C225.079 40.4158 230.852 46.3567 230.852 53.6832V295.002H230.842Z" fill="#5742C6"/>
<path d="M230.767 294.898C230.767 302.224 225.004 308.156 217.892 308.156H26.7166C19.6041 308.156 13.8411 302.215 13.8411 294.898V53.6737C13.8411 46.3472 19.6041 40.4158 26.7166 40.4158H217.882C224.995 40.4158 230.758 46.3567 230.758 53.6737V294.907L230.767 294.898Z" fill="#5843C7"/>
<path d="M230.683 294.803C230.683 302.12 224.92 308.051 217.807 308.051H26.7169C19.6138 308.051 13.8507 302.12 13.8507 294.803V53.6642C13.8507 46.3472 19.6138 40.4158 26.7169 40.4158H217.817C224.929 40.4158 230.692 46.3472 230.692 53.6642V294.803H230.683Z" fill="#5944C8"/>
<path d="M230.598 294.699C230.598 302.016 224.835 307.938 217.732 307.938H26.7073C19.6041 307.938 13.8411 302.006 13.8411 294.699V53.6547C13.8411 46.3377 19.6041 40.4158 26.7073 40.4158H217.732C224.835 40.4158 230.598 46.3472 230.598 53.6547V294.708V294.699Z" fill="#5A45C9"/>
<path d="M230.524 294.604C230.524 301.911 224.761 307.833 217.658 307.833H26.7075C19.6044 307.833 13.8507 301.911 13.8507 294.604V53.6452C13.8507 46.3377 19.6044 40.4158 26.7075 40.4158H217.658C224.761 40.4158 230.524 46.3377 230.524 53.6452V294.604Z" fill="#5B46CA"/>
<path d="M230.439 294.499C230.439 301.807 224.685 307.719 217.582 307.719H26.6979C19.5948 307.719 13.8411 301.797 13.8411 294.499V53.6357C13.8411 46.3282 19.5948 40.4158 26.6979 40.4158H217.582C224.685 40.4158 230.439 46.3377 230.439 53.6357V294.509V294.499Z" fill="#5C47CB"/>
<path d="M230.364 294.404C230.364 301.702 224.611 307.615 217.508 307.615H26.6981C19.6044 307.615 13.8507 301.702 13.8507 294.404V53.6263C13.8507 46.3282 19.6044 40.4158 26.6981 40.4158H217.508C224.601 40.4158 230.364 46.3282 230.364 53.6263V294.404Z" fill="#5C47CC"/>
<path d="M230.28 294.3C230.28 301.589 224.526 307.501 217.432 307.501H26.6885C19.5948 307.501 13.8411 301.589 13.8411 294.3V53.6168C13.8411 46.3282 19.5948 40.4158 26.6885 40.4158H217.432C224.526 40.4158 230.28 46.3282 230.28 53.6168V294.31V294.3Z" fill="#5D48CD"/>
<path d="M230.196 294.205C230.196 301.494 224.442 307.397 217.358 307.397H26.6888C19.595 307.397 13.8507 301.494 13.8507 294.205V53.6073C13.8507 46.3187 19.595 40.4158 26.6888 40.4158H217.358C224.451 40.4158 230.196 46.3187 230.196 53.6073V294.205Z" fill="#5E49CE"/>
<path d="M230.121 294.101C230.121 301.38 224.376 307.283 217.282 307.283H26.6791C19.5948 307.283 13.8411 301.38 13.8411 294.101V53.5978C13.8411 46.3187 19.5854 40.4158 26.6791 40.4158H217.273C224.367 40.4158 230.111 46.3187 230.111 53.5978V294.11L230.121 294.101Z" fill="#5F4ACF"/>
<path d="M230.036 294.006C230.036 301.285 224.292 307.178 217.208 307.178H26.6794C19.595 307.178 13.8507 301.285 13.8507 294.006V53.5883C13.8507 46.3092 19.595 40.4158 26.6794 40.4158H217.208C224.292 40.4158 230.036 46.3187 230.036 53.5883V294.006Z" fill="#604BD0"/>
<path d="M229.952 293.901C229.952 301.171 224.208 307.064 217.123 307.064H26.6698C19.5854 307.064 13.8411 301.171 13.8411 293.901V53.5788C13.8411 46.3092 19.5854 40.4158 26.6698 40.4158H217.123C224.208 40.4158 229.952 46.3092 229.952 53.5788V293.911V293.901Z" fill="#614CD1"/>
<path d="M229.877 293.807C229.877 301.076 224.133 306.96 217.058 306.96H26.67C19.5856 306.96 13.8507 301.076 13.8507 293.807V53.5693C13.8507 46.2998 19.595 40.4158 26.67 40.4158H217.058C224.142 40.4158 229.877 46.3092 229.877 53.5693V293.807Z" fill="#614DD1"/>
<path d="M229.793 293.702C229.793 300.962 224.048 306.846 216.973 306.846H26.6604C19.5854 306.846 13.8411 300.962 13.8411 293.702V53.5503C13.8411 46.2902 19.576 40.4062 26.6604 40.4062H216.973C224.048 40.4062 229.793 46.2902 229.793 53.5503V293.702Z" fill="#624ED2"/>
<path d="M229.718 293.607C229.718 300.858 223.983 306.742 216.908 306.742H26.6606C19.5856 306.742 13.8507 300.858 13.8507 293.607V53.5408C13.8507 46.2902 19.5856 40.4062 26.6606 40.4062H216.898C223.973 40.4062 229.708 46.2902 229.708 53.5408V293.598L229.718 293.607Z" fill="#634FD3"/>
<path d="M229.633 293.503C229.633 300.753 223.898 306.628 216.823 306.628H26.651C19.576 306.628 13.8411 300.753 13.8411 293.503V53.5313C13.8411 46.2807 19.576 40.4062 26.651 40.4062H216.823C223.898 40.4062 229.633 46.2807 229.633 53.5313V293.503Z" fill="#6450D4"/>
<path d="M229.549 293.408C229.549 300.649 223.814 306.523 216.749 306.523H26.6513C19.5763 306.523 13.8507 300.649 13.8507 293.408V53.5218C13.8507 46.2807 19.5856 40.4062 26.6513 40.4062H216.749C223.824 40.4062 229.549 46.2807 229.549 53.5218V293.398V293.408Z" fill="#6551D5"/>
<path d="M229.474 293.304C229.474 300.545 223.739 306.41 216.673 306.41H26.6417C19.576 306.41 13.8411 300.545 13.8411 293.304V53.5123C13.8411 46.2712 19.5667 40.4062 26.6417 40.4062H216.673C223.739 40.4062 229.474 46.2712 229.474 53.5123V293.304Z" fill="#6551D6"/>
<path d="M229.39 293.199C229.39 300.431 223.664 306.296 216.599 306.296H26.6419C19.5763 306.296 13.8507 300.431 13.8507 293.199V53.5028C13.8507 46.2712 19.5763 40.4062 26.6419 40.4062H216.599C223.664 40.4062 229.39 46.2712 229.39 53.5028V293.199Z" fill="#6652D7"/>
<path d="M229.305 293.104C229.305 300.336 223.58 306.191 216.514 306.191H26.6323C19.5667 306.191 13.8411 300.336 13.8411 293.104V53.4934C13.8411 46.2618 19.5667 40.4062 26.6323 40.4062H216.514C223.58 40.4062 229.305 46.2618 229.305 53.4934V293.104Z" fill="#6753D8"/>
<path d="M229.231 293C229.231 300.222 223.505 306.077 216.449 306.077H26.6325C19.5763 306.077 13.8507 300.222 13.8507 293V53.4839C13.8507 46.2618 19.5763 40.4062 26.6325 40.4062H216.449C223.505 40.4062 229.231 46.2618 229.231 53.4839V293Z" fill="#6854D9"/>
<path d="M229.146 292.905C229.146 300.127 223.42 305.973 216.364 305.973H26.6229C19.5667 305.973 13.8411 300.127 13.8411 292.905V53.4744C13.8411 46.2618 19.5573 40.4062 26.6229 40.4062H216.364C223.42 40.4062 229.146 46.2523 229.146 53.4744V292.905Z" fill="#6955DA"/>
<path d="M229.071 292.801C229.071 300.013 223.355 305.859 216.299 305.859H26.6232C19.5669 305.859 13.8507 300.013 13.8507 292.801V53.4649C13.8507 46.2523 19.5669 40.4062 26.6232 40.4062H216.299C223.355 40.4062 229.071 46.2523 229.071 53.4649V292.801Z" fill="#6A56DB"/>
<path d="M228.987 292.706C228.987 299.909 223.27 305.755 216.214 305.755H26.6135C19.5573 305.755 13.8411 299.918 13.8411 292.706V53.4554C13.8411 46.2523 19.5573 40.4062 26.6135 40.4062H216.214C223.27 40.4062 228.987 46.2523 228.987 53.4554V292.706Z" fill="#6A57DC"/>
<path d="M228.903 292.601C228.903 299.804 223.186 305.641 216.139 305.641H26.6138C19.5669 305.641 13.8507 299.804 13.8507 292.601V53.4459C13.8507 46.2428 19.5669 40.4062 26.6138 40.4062H216.139C223.186 40.4062 228.903 46.2428 228.903 53.4459V292.601Z" fill="#6B58DD"/>
<path d="M228.828 292.506C228.828 299.7 223.111 305.536 216.064 305.536H26.6044C19.5575 305.536 13.8507 299.709 13.8507 292.506V53.4364C13.8507 46.2428 19.5669 40.4062 26.6044 40.4062H216.064C223.111 40.4062 228.828 46.2428 228.828 53.4364V292.506Z" fill="#6C59DE"/>
<path d="M228.743 292.402C228.743 299.596 223.027 305.423 215.99 305.423H26.6044C19.5575 305.423 13.8507 299.596 13.8507 292.402V53.4269C13.8507 46.2333 19.5575 40.4062 26.6044 40.4062H215.99C223.036 40.4062 228.743 46.2333 228.743 53.4269V292.402Z" fill="#6D5ADF"/>
<path d="M228.659 292.307C228.659 299.491 222.952 305.318 215.905 305.318H26.595C19.5575 305.318 13.8507 299.491 13.8507 292.307V53.4174C13.8507 46.2333 19.5575 40.4062 26.595 40.4062H215.915C222.952 40.4062 228.668 46.2333 228.668 53.4174V292.307H228.659Z" fill="#6E5AE0"/>
<path d="M228.584 292.203C228.584 299.387 222.877 305.204 215.84 305.204H26.595C19.5575 305.204 13.8507 299.387 13.8507 292.203V53.4079C13.8507 46.2333 19.5575 40.4062 26.595 40.4062H215.84C222.877 40.4062 228.584 46.2238 228.584 53.4079V292.203Z" fill="#6F5BE1"/>
<path d="M228.5 292.108C228.5 299.282 222.793 305.1 215.755 305.1H26.5857C19.5482 305.1 13.8507 299.282 13.8507 292.108V53.3985C13.8507 46.2238 19.5575 40.4062 26.5857 40.4062H215.755C222.793 40.4062 228.5 46.2238 228.5 53.3985V292.108Z" fill="#6F5CE2"/>
<path d="M228.424 292.003C228.424 299.169 222.718 304.986 215.689 304.986H26.5761C19.5385 304.986 13.8411 299.178 13.8411 292.003V53.389C13.8411 46.2238 19.5385 40.4062 26.5761 40.4062H215.68C222.718 40.4062 228.415 46.2143 228.415 53.389V292.003H228.424Z" fill="#705DE3"/>
<path d="M228.34 291.908C228.34 299.074 222.643 304.882 215.605 304.882H26.5763C19.5482 304.882 13.8507 299.074 13.8507 291.908V53.3795C13.8507 46.2143 19.5482 40.4062 26.5763 40.4062H215.605C222.633 40.4062 228.34 46.2143 228.34 53.3795V291.908Z" fill="#715EE4"/>
<path d="M228.256 291.804C228.256 298.96 222.558 304.768 215.53 304.768H26.5667C19.5385 304.768 13.8411 298.969 13.8411 291.804V53.37C13.8411 46.2143 19.5385 40.4062 26.5667 40.4062H215.53C222.558 40.4062 228.256 46.2048 228.256 53.37V291.804Z" fill="#725FE5"/>
<path opacity="0.3" d="M224.489 44.1647C224.489 44.1647 221.949 40.4445 216.149 40.4255H25.2644C25.2644 40.4255 14.9471 41.1373 13.8507 52.0511V293.864C13.8507 293.864 14.2349 298.799 17.852 301.238C17.852 301.238 15.5093 297.593 15.6499 294.025V52.203C15.6499 52.203 16.6338 42.6937 26.1078 42.3995H217.133C217.133 42.3995 221.79 42.5134 224.48 44.1647H224.489Z" fill="white"/>
<path d="M378.724 12.0303C378.724 15.3045 376.1 17.9522 372.867 17.9522C369.634 17.9522 367.01 15.295 367.01 12.0303C367.01 8.76565 369.634 6.09888 372.867 6.09888C376.1 6.09888 378.724 8.75616 378.724 12.0303Z" fill="url(#paint1_radial_26_1707)"/>
<path d="M396.772 12.0303C396.772 15.3045 394.148 17.9522 390.915 17.9522C387.682 17.9522 385.068 15.295 385.068 12.0303C385.068 8.76565 387.682 6.09888 390.915 6.09888C394.148 6.09888 396.772 8.75616 396.772 12.0303Z" fill="url(#paint2_radial_26_1707)"/>
<path d="M414.82 12.0303C414.82 15.3045 412.196 17.9522 408.973 17.9522C405.749 17.9522 403.116 15.295 403.116 12.0303C403.116 8.76565 405.74 6.09888 408.973 6.09888C412.206 6.09888 414.82 8.75616 414.82 12.0303Z" fill="url(#paint3_radial_26_1707)"/>
<path opacity="0.3" d="M416.694 46.594C416.694 46.594 413.349 41.1656 406.349 40.8809H260.004C260.004 40.8809 250.006 41.5926 248.469 52.9051V128.372C248.469 128.372 249.218 132.994 253.407 135.233C253.407 135.233 250.099 131.456 249.818 128.448V53.408C249.818 53.408 250.811 43.1016 260.463 42.238H406.63C406.63 42.238 412.046 42.0007 416.694 46.594Z" fill="white"/>
<path d="M291.809 155.818C308.751 174.846 324.063 188.825 326.013 187.041C327.962 185.257 315.817 168.392 298.875 149.364C281.932 130.336 266.62 116.357 264.671 118.141C262.722 119.925 274.866 136.79 291.809 155.818Z" fill="url(#paint4_linear_26_1707)"/>
<path d="M136.796 155.818C119.854 174.846 104.542 188.825 102.593 187.041C100.643 185.257 112.788 168.392 129.731 149.364C146.673 130.336 161.985 116.357 163.934 118.141C165.883 119.925 153.739 136.79 136.796 155.818Z" fill="url(#paint5_linear_26_1707)"/>
<path d="M300.158 94.4059L251.88 138.299C251.88 138.299 240.953 146.868 231.789 147.58C231.789 147.58 212.41 142.939 203.948 153.644C203.948 153.644 194.436 161.853 201.83 173.982C201.83 173.982 208.174 185.399 218.388 180.407C218.388 180.407 224.376 178.262 225.435 172.198C225.435 172.198 219.794 188.967 174.692 206.458C174.692 206.458 203.938 266.057 227.553 279.258C227.553 279.258 269.488 246.782 276.534 223.939C276.534 223.939 284.837 211.962 291.181 204.75L351.792 154.252L300.14 94.387L300.158 94.4059Z" fill="url(#paint6_linear_26_1707)"/>
<path d="M121.559 91.6255L175.413 136.923C175.413 136.923 179.518 140.614 183.547 140.206C188.223 139.846 198.503 139.267 206.543 140.472C228.303 143.727 231.179 148.501 232.997 149.915C234.337 150.949 208.849 157.659 210.357 158.836C228.125 172.692 241.019 186.832 256.546 203.715C256.546 203.715 282.485 229.292 279.196 242.255C279.196 242.255 277.293 257.316 260.726 251.698C260.726 251.698 263.621 259.642 258.608 268.107C258.608 268.107 249.631 276.705 236.155 268.847C236.155 268.847 243.024 276.923 236.661 284.63C236.661 284.63 228.462 292.934 217.376 285.265C217.376 285.265 220.281 293.475 210.929 298.599C210.929 298.599 201.015 302.936 191.841 288.777C191.841 288.777 159.089 266.864 141.838 223.503C141.838 223.503 140.751 223.417 134.407 203.791L70.0287 146.299L121.578 91.6445L121.559 91.6255Z" fill="url(#paint7_linear_26_1707)"/>
<path d="M158.621 218.178C163.625 223.768 163.213 232.404 157.693 237.482L149.278 245.216C143.759 250.284 135.231 249.866 130.218 244.286C125.214 238.696 125.626 230.06 131.146 224.983L139.561 217.248C145.08 212.181 153.607 212.598 158.621 218.178Z" fill="url(#paint8_linear_26_1707)"/>
<path d="M177.756 239.067C183.023 244.951 182.592 254.042 176.782 259.376L167.926 267.509C162.116 272.843 153.148 272.406 147.873 266.522C142.606 260.638 143.037 251.546 148.847 246.213L157.703 238.08C163.512 232.746 172.49 233.183 177.756 239.067Z" fill="url(#paint9_linear_26_1707)"/>
<path d="M195.383 259.423C199.937 264.51 199.562 272.358 194.539 276.971L186.893 284.003C181.879 288.615 174.111 288.236 169.557 283.149C165.002 278.072 165.377 270.214 170.4 265.601L178.047 258.569C183.069 253.957 190.819 254.336 195.373 259.423H195.383Z" fill="url(#paint10_linear_26_1707)"/>
<path d="M213.459 272.785C217.395 277.179 217.076 283.984 212.728 287.979L206.103 294.063C201.764 298.058 195.045 297.726 191.1 293.322C187.165 288.928 187.483 282.124 191.831 278.138L198.456 272.055C202.795 268.059 209.514 268.391 213.45 272.795L213.459 272.785Z" fill="url(#paint11_linear_26_1707)"/>
<path d="M246.21 142.123C246.21 142.123 234.731 147.599 223.374 146.527C223.374 146.527 206.853 144.6 199.187 153.426C199.187 153.426 188.598 161.559 195.355 174.893C195.355 174.893 201.961 185.864 215.446 178.376C215.446 178.376 218.351 177.038 222.586 171.145C222.586 171.145 224.639 170.015 226.878 171.619" fill="url(#paint12_linear_26_1707)"/>
<path d="M143.899 91.8438L106.425 56.9005C105.301 55.8566 103.886 55.3346 102.452 55.3062C102.096 55.2207 101.637 55.2682 101.065 55.439C100.137 55.6383 99.2471 56.0369 98.4506 56.6538C91.5443 60.6587 78.069 72.8727 63.7597 88.4557C46.4611 107.303 33.9322 124.566 33.8572 129.359C33.623 131.285 34.2414 133.269 35.7314 134.654L73.2055 169.598C75.6888 171.923 79.6339 171.686 82.0047 169.076L144.105 100.755C146.476 98.1453 146.383 94.1499 143.899 91.8343V91.8438Z" fill="url(#paint13_linear_26_1707)"/>
<path d="M143.356 99.4454C143.356 99.4454 143.309 99.36 143.281 99.322C143.243 99.2935 143.196 99.2746 143.15 99.2556L143.056 99.1702L143.028 99.1987C140.282 98.4964 125.439 112.162 109.068 130.545C92.3314 149.345 80.2805 166.029 81.8735 168.136L81.8548 168.155L102.761 187.183C102.761 187.183 100.906 184.858 133.254 147.647C145.305 133.791 162.603 116.945 163.953 118.179L143.346 99.4264L143.356 99.4454Z" fill="url(#paint14_linear_26_1707)"/>
<path d="M284.706 91.8438L322.18 56.9005C323.304 55.8566 324.719 55.3346 326.153 55.3062C326.509 55.2207 326.968 55.2682 327.54 55.439C328.468 55.6383 329.358 56.0369 330.154 56.6538C337.061 60.6587 350.536 72.8727 364.845 88.4557C382.144 107.303 394.673 124.566 394.748 129.359C394.982 131.285 394.364 133.269 392.874 134.654L355.4 169.598C352.916 171.923 348.971 171.686 346.6 169.076L284.49 100.755C282.119 98.1453 282.213 94.1499 284.696 91.8343L284.706 91.8438Z" fill="url(#paint15_linear_26_1707)"/>
<path d="M285.249 99.4454C285.249 99.4454 285.296 99.36 285.324 99.322C285.362 99.2935 285.409 99.2746 285.455 99.2556L285.549 99.1702L285.577 99.1987C288.323 98.4964 303.166 112.162 319.537 130.545C336.274 149.345 348.325 166.029 346.732 168.136L346.75 168.155L325.844 187.183C325.844 187.183 327.699 184.858 295.351 147.647C283.3 133.791 266.002 116.945 264.652 118.179L285.259 99.4264L285.249 99.4454Z" fill="url(#paint16_linear_26_1707)"/>
<path d="M362.887 321.983H449.848C449.848 321.983 463.417 323.767 464.214 308.64V199.074C464.214 199.074 462.743 183.956 475.431 180.958H373.654C373.654 180.958 362.484 181.84 362.887 199.634V303.449" fill="url(#paint17_linear_26_1707)"/>
<path d="M363.946 321.983H453.288C453.288 321.983 444.441 321.737 445.913 305.527H356.918C356.918 305.527 354.209 319.316 363.936 321.983H363.946Z" fill="url(#paint18_linear_26_1707)"/>
<path d="M451.132 322.05C451.132 322.05 464.467 324.024 464.72 310.149V200.564C463.614 185.513 476.134 180.958 476.134 180.958H473.894C473.894 180.958 461.862 185.19 462.612 201.324V309.048C462.612 309.048 463.268 322.572 450.411 321.262C450.411 321.262 450.542 322.05 451.132 322.05Z" fill="#6F8BEF"/>
<path opacity="0.5" d="M473.857 180.958H373.654C373.654 180.958 361.969 183.472 362.868 198.761V305.527H365.248L365.127 197.195C365.127 197.195 365.511 184.26 375.069 182.609H470.867L473.857 180.958Z" fill="white"/>
<path d="M411.512 297.214C410.941 297.973 409.863 298.125 409.113 297.555C408.364 296.967 408.214 295.885 408.776 295.116L413.658 288.578C414.23 287.809 415.308 287.667 416.067 288.236C416.816 288.815 416.966 289.906 416.404 290.666L411.522 297.204L411.512 297.214Z" fill="black"/>
<path d="M488.953 190.239C485.139 187.316 479.713 188.085 476.837 191.947L468.965 202.501L419.731 268.487L433.524 279.04L482.759 213.054L490.631 202.501C493.507 198.638 492.758 193.153 488.944 190.239H488.953Z" fill="url(#paint19_linear_26_1707)"/>
<path d="M419.74 268.487L413.649 276.658C410.763 280.52 408.542 288.948 412.449 292.782C417.491 295.686 424.566 291.073 427.443 287.211L433.543 279.04L419.749 268.487H419.74Z" fill="#E7DDF2"/>
<path d="M464.617 250.626C464.036 251.395 462.78 251.404 461.796 250.645C460.812 249.886 460.466 248.661 461.047 247.893L488.26 211.412C488.831 210.653 490.087 210.643 491.08 211.393C492.064 212.152 492.402 213.377 491.83 214.145L464.626 250.616L464.617 250.626Z" fill="#F2EDF7"/>
<path d="M488.26 211.412L481.428 220.57L478.729 218.454L485.477 209.419L488.26 211.412Z" fill="url(#paint20_linear_26_1707)"/>
<path d="M420.574 233.97C420.574 256.624 402.441 274.997 380.064 274.997C357.686 274.997 339.563 256.633 339.563 233.97C339.563 211.308 357.695 192.944 380.064 192.944C402.432 192.944 420.574 211.308 420.574 233.97Z" fill="url(#paint21_linear_26_1707)"/>
<path d="M375.097 252.638C373.598 252.638 372.155 252.03 371.096 250.958L357.349 236.998C355.147 234.758 355.156 231.142 357.367 228.912C359.579 226.682 363.149 226.691 365.351 228.921L375.05 238.782L393.408 219.716C395.591 217.457 399.162 217.41 401.392 219.611C403.622 221.813 403.669 225.438 401.495 227.697L379.136 250.91C378.086 252.002 376.634 252.628 375.125 252.638H375.097Z" fill="white"/>
<g style="mix-blend-mode:multiply" opacity="0.75">
<path d="M375.097 252.638C373.598 252.638 372.155 252.03 371.096 250.958L357.349 236.998C355.147 234.758 355.156 231.142 357.367 228.912C359.579 226.682 363.149 226.691 365.351 228.921L375.05 238.782L393.408 219.716C395.591 217.457 399.162 217.41 401.392 219.611C403.622 221.813 403.669 225.438 401.495 227.697L379.136 250.91C378.086 252.002 376.634 252.628 375.125 252.638H375.097Z" fill="#C9C9C9"/>
</g>
<path opacity="0.7" d="M390.24 194.253C390.24 194.253 366.335 186.016 347.865 209.087C347.865 209.087 334.793 223.028 341.587 246.82C341.587 246.82 338.223 223.142 350.62 209.011C350.62 209.011 362.025 192.412 390.24 194.263V194.253Z" fill="white"/>
<defs>
<linearGradient id="paint0_linear_26_1707" x1="42.6284" y1="83.9004" x2="433.78" y2="270.302" gradientUnits="userSpaceOnUse">
<stop offset="0.27" stop-color="#F7F6FA"/>
<stop offset="1" stop-color="#D6D7FB"/>
</linearGradient>
<radialGradient id="paint1_radial_26_1707" cx="0" cy="0" r="1" gradientUnits="userSpaceOnUse" gradientTransform="translate(370.543 9.80009) scale(8.83672 8.94934)">
<stop offset="0.43" stop-color="#F4D63C"/>
<stop offset="1" stop-color="#E1A51B"/>
</radialGradient>
<radialGradient id="paint2_radial_26_1707" cx="0" cy="0" r="1" gradientUnits="userSpaceOnUse" gradientTransform="translate(388.601 9.80009) scale(8.83671 8.94934)">
<stop offset="0.4" stop-color="#FB6173"/>
<stop offset="0.74" stop-color="#DF3C59"/>
<stop offset="1" stop-color="#73384B"/>
</radialGradient>
<radialGradient id="paint3_radial_26_1707" cx="0" cy="0" r="1" gradientUnits="userSpaceOnUse" gradientTransform="translate(406.649 9.80009) scale(8.83671 8.94934)">
<stop offset="0.42" stop-color="#8CB8FA"/>
<stop offset="1" stop-color="#5386EB"/>
</radialGradient>
<linearGradient id="paint4_linear_26_1707" x1="278.478" y1="167.866" x2="295.806" y2="152.552" gradientUnits="userSpaceOnUse">
<stop stop-color="#F2EEEE"/>
<stop offset="0.36" stop-color="#E0DDE8"/>
<stop offset="0.74" stop-color="#C4BFDD"/>
<stop offset="0.98" stop-color="#AFACD1"/>
</linearGradient>
<linearGradient id="paint5_linear_26_1707" x1="150.121" y1="167.835" x2="132.793" y2="152.521" gradientUnits="userSpaceOnUse">
<stop stop-color="#F2EEEE"/>
<stop offset="0.36" stop-color="#E0DDE8"/>
<stop offset="0.74" stop-color="#C4BFDD"/>
<stop offset="0.98" stop-color="#AFACD1"/>
</linearGradient>
<linearGradient id="paint6_linear_26_1707" x1="221.93" y1="140.5" x2="283.829" y2="210.198" gradientUnits="userSpaceOnUse">
<stop stop-color="#F5E3D6"/>
<stop offset="0.36" stop-color="#F5DFCE"/>
<stop offset="0.63" stop-color="#EDCBB3"/>
<stop offset="0.95" stop-color="#E3AEA1"/>
</linearGradient>
<linearGradient id="paint7_linear_26_1707" x1="218.585" y1="154.366" x2="128.007" y2="233.345" gradientUnits="userSpaceOnUse">
<stop stop-color="#F5E3D6"/>
<stop offset="0.37" stop-color="#F9BCAC"/>
<stop offset="0.74" stop-color="#F7A699"/>
<stop offset="0.95" stop-color="#E88075"/>
</linearGradient>
<linearGradient id="paint8_linear_26_1707" x1="133.621" y1="219.244" x2="152.8" y2="239.93" gradientUnits="userSpaceOnUse">
<stop stop-color="#F2DECD"/>
<stop offset="0.32" stop-color="#F2DECD"/>
<stop offset="0.67" stop-color="#F0C2A6"/>
<stop offset="1" stop-color="#EA9576"/>
</linearGradient>
<linearGradient id="paint9_linear_26_1707" x1="152.734" y1="243.146" x2="173.248" y2="262.217" gradientUnits="userSpaceOnUse">
<stop stop-color="#F2DECD"/>
<stop offset="0.32" stop-color="#F2DECD"/>
<stop offset="0.67" stop-color="#F0C2A6"/>
<stop offset="1" stop-color="#EA9576"/>
</linearGradient>
<linearGradient id="paint10_linear_26_1707" x1="173.753" y1="262.942" x2="191.483" y2="279.418" gradientUnits="userSpaceOnUse">
<stop stop-color="#F2DECD"/>
<stop offset="0.32" stop-color="#F2DECD"/>
<stop offset="0.67" stop-color="#F0C2A6"/>
<stop offset="1" stop-color="#EA9576"/>
</linearGradient>
<linearGradient id="paint11_linear_26_1707" x1="194.751" y1="275.824" x2="210.092" y2="290.083" gradientUnits="userSpaceOnUse">
<stop stop-color="#F2DECD"/>
<stop offset="0.32" stop-color="#F2DECD"/>
<stop offset="0.67" stop-color="#F0C2A6"/>
<stop offset="1" stop-color="#EA9576"/>
</linearGradient>
<linearGradient id="paint12_linear_26_1707" x1="220.637" y1="149.023" x2="213.17" y2="180.403" gradientUnits="userSpaceOnUse">
<stop stop-color="#F5E3D6"/>
<stop offset="0.5" stop-color="#F5DFCE"/>
<stop offset="0.81" stop-color="#EDCBB3"/>
<stop offset="0.95" stop-color="#EDCBB3"/>
</linearGradient>
<linearGradient id="paint13_linear_26_1707" x1="130.068" y1="68.1655" x2="51.8294" y2="148.991" gradientUnits="userSpaceOnUse">
<stop offset="0.18" stop-color="#4D73ED"/>
<stop offset="0.47" stop-color="#418BED"/>
<stop offset="0.58" stop-color="#418BED"/>
<stop offset="1" stop-color="#4E4ED7"/>
</linearGradient>
<linearGradient id="paint14_linear_26_1707" x1="141.763" y1="118.388" x2="85.1968" y2="181.243" gradientUnits="userSpaceOnUse">
<stop stop-color="#F2EEEE"/>
<stop offset="0.36" stop-color="#E0DDE8"/>
<stop offset="0.74" stop-color="#C4BFDD"/>
<stop offset="0.98" stop-color="#AFACD1"/>
</linearGradient>
<linearGradient id="paint15_linear_26_1707" x1="303.401" y1="72.1229" x2="376.931" y2="149.754" gradientUnits="userSpaceOnUse">
<stop stop-color="#EBCB79"/>
<stop offset="0.36" stop-color="#E6B25F"/>
<stop offset="0.74" stop-color="#E1A650"/>
<stop offset="0.98" stop-color="#D3802E"/>
</linearGradient>
<linearGradient id="paint16_linear_26_1707" x1="286.842" y1="118.379" x2="343.418" y2="181.242" gradientUnits="userSpaceOnUse">
<stop stop-color="#F2EEEE"/>
<stop offset="0.45" stop-color="#E0DDE8"/>
<stop offset="0.74" stop-color="#C4BFDD"/>
<stop offset="1" stop-color="#AFACD1"/>
</linearGradient>
<linearGradient id="paint17_linear_26_1707" x1="419.15" y1="178.006" x2="419.15" y2="314.486" gradientUnits="userSpaceOnUse">
<stop stop-color="#E9F2FE"/>
<stop offset="0.19" stop-color="#DCEAFE"/>
<stop offset="0.78" stop-color="#DCEAFE"/>
<stop offset="1" stop-color="#95B3EF"/>
</linearGradient>
<linearGradient id="paint18_linear_26_1707" x1="404.934" y1="318.804" x2="404.934" y2="289.318" gradientUnits="userSpaceOnUse">
<stop stop-color="#6586FF"/>
<stop offset="0.24" stop-color="#82A7ED"/>
<stop offset="0.8" stop-color="#82A7ED"/>
<stop offset="1" stop-color="#6586FF"/>
</linearGradient>
<linearGradient id="paint19_linear_26_1707" x1="446.413" y1="223.225" x2="461.995" y2="234.924" gradientUnits="userSpaceOnUse">
<stop stop-color="#FF97DF"/>
<stop offset="0.5" stop-color="#FF7ECB"/>
<stop offset="1" stop-color="#E64AF9"/>
</linearGradient>
<linearGradient id="paint20_linear_26_1707" x1="479.146" y1="214.504" x2="487.885" y2="215.371" gradientUnits="userSpaceOnUse">
<stop stop-color="#F2EEEE"/>
<stop offset="0.36" stop-color="#E0DDE8"/>
<stop offset="0.74" stop-color="#C4BFDD"/>
<stop offset="0.98" stop-color="#AFACD1"/>
</linearGradient>
<linearGradient id="paint21_linear_26_1707" x1="346.216" y1="218.767" x2="420.598" y2="251.332" gradientUnits="userSpaceOnUse">
<stop stop-color="#0FE9A9"/>
<stop offset="0.6" stop-color="#0FDF93"/>
<stop offset="1" stop-color="#0FBB93"/>
</linearGradient>
</defs>
</svg>
